<mxfile host="app.diagrams.net" agent="Mozilla/5.0 (Macintosh; Intel Mac OS X 10_15_7) AppleWebKit/605.1.15 (KHTML, like Gecko) Version/17.5 Safari/605.1.15" version="24.7.7">
  <diagram name="Page-1" id="-ys2WFUEKcFmMJ1kfhmh">
    <mxGraphModel dx="1440" dy="960" grid="1" gridSize="10" guides="1" tooltips="1" connect="1" arrows="1" fold="1" page="1" pageScale="1" pageWidth="850" pageHeight="1100" math="0" shadow="0">
      <root>
        <mxCell id="0" />
        <mxCell id="1" parent="0" />
        <mxCell id="ywzrXXErnXX4BIjhbYWO-1" value="Customer" style="rounded=0;whiteSpace=wrap;html=1;" vertex="1" parent="1">
          <mxGeometry x="210" y="190" width="170" height="100" as="geometry" />
        </mxCell>
        <mxCell id="ywzrXXErnXX4BIjhbYWO-2" value="CUS_ID" style="ellipse;whiteSpace=wrap;html=1;" vertex="1" parent="1">
          <mxGeometry x="20" y="50" width="120" height="80" as="geometry" />
        </mxCell>
        <mxCell id="ywzrXXErnXX4BIjhbYWO-3" value="Name" style="ellipse;whiteSpace=wrap;html=1;" vertex="1" parent="1">
          <mxGeometry x="165" y="50" width="120" height="80" as="geometry" />
        </mxCell>
        <mxCell id="ywzrXXErnXX4BIjhbYWO-4" value="Address1" style="ellipse;whiteSpace=wrap;html=1;" vertex="1" parent="1">
          <mxGeometry x="310" y="50" width="120" height="80" as="geometry" />
        </mxCell>
        <mxCell id="ywzrXXErnXX4BIjhbYWO-5" value="Adress2" style="ellipse;whiteSpace=wrap;html=1;" vertex="1" parent="1">
          <mxGeometry x="470" y="50" width="120" height="80" as="geometry" />
        </mxCell>
        <mxCell id="ywzrXXErnXX4BIjhbYWO-6" value="" style="endArrow=none;html=1;rounded=0;" edge="1" parent="1" source="ywzrXXErnXX4BIjhbYWO-2">
          <mxGeometry width="50" height="50" relative="1" as="geometry">
            <mxPoint x="400" y="370" as="sourcePoint" />
            <mxPoint x="295" y="190" as="targetPoint" />
          </mxGeometry>
        </mxCell>
        <mxCell id="ywzrXXErnXX4BIjhbYWO-7" value="" style="endArrow=none;html=1;rounded=0;exitX=0.5;exitY=1;exitDx=0;exitDy=0;entryX=0.5;entryY=0;entryDx=0;entryDy=0;" edge="1" parent="1" source="ywzrXXErnXX4BIjhbYWO-3" target="ywzrXXErnXX4BIjhbYWO-1">
          <mxGeometry width="50" height="50" relative="1" as="geometry">
            <mxPoint x="400" y="370" as="sourcePoint" />
            <mxPoint x="450" y="320" as="targetPoint" />
          </mxGeometry>
        </mxCell>
        <mxCell id="ywzrXXErnXX4BIjhbYWO-8" value="" style="endArrow=none;html=1;rounded=0;entryX=0.575;entryY=1.038;entryDx=0;entryDy=0;entryPerimeter=0;exitX=0.5;exitY=0;exitDx=0;exitDy=0;" edge="1" parent="1" source="ywzrXXErnXX4BIjhbYWO-1" target="ywzrXXErnXX4BIjhbYWO-4">
          <mxGeometry width="50" height="50" relative="1" as="geometry">
            <mxPoint x="400" y="370" as="sourcePoint" />
            <mxPoint x="450" y="320" as="targetPoint" />
          </mxGeometry>
        </mxCell>
        <mxCell id="ywzrXXErnXX4BIjhbYWO-9" value="" style="endArrow=none;html=1;rounded=0;entryX=0.558;entryY=0.988;entryDx=0;entryDy=0;entryPerimeter=0;exitX=0.5;exitY=0;exitDx=0;exitDy=0;" edge="1" parent="1" source="ywzrXXErnXX4BIjhbYWO-1" target="ywzrXXErnXX4BIjhbYWO-5">
          <mxGeometry width="50" height="50" relative="1" as="geometry">
            <mxPoint x="400" y="370" as="sourcePoint" />
            <mxPoint x="450" y="320" as="targetPoint" />
          </mxGeometry>
        </mxCell>
        <mxCell id="ywzrXXErnXX4BIjhbYWO-11" value="has" style="rhombus;whiteSpace=wrap;html=1;" vertex="1" parent="1">
          <mxGeometry x="255" y="350" width="80" height="80" as="geometry" />
        </mxCell>
        <mxCell id="ywzrXXErnXX4BIjhbYWO-12" value="ORDER" style="rounded=0;whiteSpace=wrap;html=1;" vertex="1" parent="1">
          <mxGeometry x="235" y="490" width="120" height="60" as="geometry" />
        </mxCell>
        <mxCell id="ywzrXXErnXX4BIjhbYWO-13" value="ORDER_ID" style="ellipse;whiteSpace=wrap;html=1;" vertex="1" parent="1">
          <mxGeometry x="20" y="410" width="100" height="60" as="geometry" />
        </mxCell>
        <mxCell id="ywzrXXErnXX4BIjhbYWO-14" value="Order Date" style="ellipse;whiteSpace=wrap;html=1;" vertex="1" parent="1">
          <mxGeometry x="20" y="490" width="100" height="60" as="geometry" />
        </mxCell>
        <mxCell id="ywzrXXErnXX4BIjhbYWO-15" value="Promised Date" style="ellipse;whiteSpace=wrap;html=1;" vertex="1" parent="1">
          <mxGeometry x="20" y="570" width="100" height="60" as="geometry" />
        </mxCell>
        <mxCell id="ywzrXXErnXX4BIjhbYWO-20" value="" style="endArrow=none;html=1;rounded=0;exitX=1;exitY=0.5;exitDx=0;exitDy=0;entryX=0;entryY=0.5;entryDx=0;entryDy=0;" edge="1" parent="1" source="ywzrXXErnXX4BIjhbYWO-13" target="ywzrXXErnXX4BIjhbYWO-12">
          <mxGeometry width="50" height="50" relative="1" as="geometry">
            <mxPoint x="400" y="370" as="sourcePoint" />
            <mxPoint x="450" y="320" as="targetPoint" />
          </mxGeometry>
        </mxCell>
        <mxCell id="ywzrXXErnXX4BIjhbYWO-21" value="" style="endArrow=none;html=1;rounded=0;exitX=1;exitY=0.5;exitDx=0;exitDy=0;entryX=0;entryY=0.5;entryDx=0;entryDy=0;" edge="1" parent="1" source="ywzrXXErnXX4BIjhbYWO-14" target="ywzrXXErnXX4BIjhbYWO-12">
          <mxGeometry width="50" height="50" relative="1" as="geometry">
            <mxPoint x="400" y="370" as="sourcePoint" />
            <mxPoint x="230" y="520" as="targetPoint" />
          </mxGeometry>
        </mxCell>
        <mxCell id="ywzrXXErnXX4BIjhbYWO-22" value="" style="endArrow=none;html=1;rounded=0;exitX=1;exitY=0.5;exitDx=0;exitDy=0;entryX=0;entryY=0.5;entryDx=0;entryDy=0;" edge="1" parent="1" source="ywzrXXErnXX4BIjhbYWO-15" target="ywzrXXErnXX4BIjhbYWO-12">
          <mxGeometry width="50" height="50" relative="1" as="geometry">
            <mxPoint x="400" y="370" as="sourcePoint" />
            <mxPoint x="450" y="320" as="targetPoint" />
          </mxGeometry>
        </mxCell>
        <mxCell id="ywzrXXErnXX4BIjhbYWO-23" value="" style="whiteSpace=wrap;html=1;aspect=fixed;" vertex="1" parent="1">
          <mxGeometry x="425" y="480" width="80" height="80" as="geometry" />
        </mxCell>
        <mxCell id="ywzrXXErnXX4BIjhbYWO-24" value="Contain" style="rhombus;whiteSpace=wrap;html=1;" vertex="1" parent="1">
          <mxGeometry x="425" y="480" width="80" height="80" as="geometry" />
        </mxCell>
        <mxCell id="ywzrXXErnXX4BIjhbYWO-25" value="PRODUCT" style="rounded=0;whiteSpace=wrap;html=1;" vertex="1" parent="1">
          <mxGeometry x="560" y="490" width="120" height="60" as="geometry" />
        </mxCell>
        <mxCell id="ywzrXXErnXX4BIjhbYWO-26" value="Product Description" style="ellipse;whiteSpace=wrap;html=1;" vertex="1" parent="1">
          <mxGeometry x="740" y="450" width="100" height="60" as="geometry" />
        </mxCell>
        <mxCell id="ywzrXXErnXX4BIjhbYWO-27" value="Product Unit Price" style="ellipse;whiteSpace=wrap;html=1;" vertex="1" parent="1">
          <mxGeometry x="740" y="520" width="100" height="60" as="geometry" />
        </mxCell>
        <mxCell id="ywzrXXErnXX4BIjhbYWO-29" value="" style="endArrow=none;html=1;rounded=0;exitX=1;exitY=0.5;exitDx=0;exitDy=0;entryX=0;entryY=0.5;entryDx=0;entryDy=0;" edge="1" parent="1" source="ywzrXXErnXX4BIjhbYWO-25" target="ywzrXXErnXX4BIjhbYWO-26">
          <mxGeometry width="50" height="50" relative="1" as="geometry">
            <mxPoint x="400" y="370" as="sourcePoint" />
            <mxPoint x="450" y="320" as="targetPoint" />
          </mxGeometry>
        </mxCell>
        <mxCell id="ywzrXXErnXX4BIjhbYWO-30" value="" style="endArrow=none;html=1;rounded=0;exitX=1;exitY=0.5;exitDx=0;exitDy=0;entryX=0;entryY=0.5;entryDx=0;entryDy=0;" edge="1" parent="1" source="ywzrXXErnXX4BIjhbYWO-25" target="ywzrXXErnXX4BIjhbYWO-27">
          <mxGeometry width="50" height="50" relative="1" as="geometry">
            <mxPoint x="400" y="370" as="sourcePoint" />
            <mxPoint x="450" y="320" as="targetPoint" />
          </mxGeometry>
        </mxCell>
        <mxCell id="ywzrXXErnXX4BIjhbYWO-31" value="Product NO" style="ellipse;whiteSpace=wrap;html=1;" vertex="1" parent="1">
          <mxGeometry x="570" y="370" width="100" height="60" as="geometry" />
        </mxCell>
        <mxCell id="ywzrXXErnXX4BIjhbYWO-32" value="Quantity" style="ellipse;whiteSpace=wrap;html=1;" vertex="1" parent="1">
          <mxGeometry x="415" y="350" width="100" height="60" as="geometry" />
        </mxCell>
        <mxCell id="ywzrXXErnXX4BIjhbYWO-33" value="" style="endArrow=none;html=1;rounded=0;exitX=0.5;exitY=1;exitDx=0;exitDy=0;entryX=0.5;entryY=0;entryDx=0;entryDy=0;" edge="1" parent="1" source="ywzrXXErnXX4BIjhbYWO-31" target="ywzrXXErnXX4BIjhbYWO-25">
          <mxGeometry width="50" height="50" relative="1" as="geometry">
            <mxPoint x="400" y="370" as="sourcePoint" />
            <mxPoint x="450" y="320" as="targetPoint" />
          </mxGeometry>
        </mxCell>
        <mxCell id="ywzrXXErnXX4BIjhbYWO-34" value="" style="endArrow=none;html=1;rounded=0;exitX=0.5;exitY=1;exitDx=0;exitDy=0;" edge="1" parent="1" source="ywzrXXErnXX4BIjhbYWO-32" target="ywzrXXErnXX4BIjhbYWO-24">
          <mxGeometry width="50" height="50" relative="1" as="geometry">
            <mxPoint x="400" y="370" as="sourcePoint" />
            <mxPoint x="450" y="320" as="targetPoint" />
          </mxGeometry>
        </mxCell>
        <mxCell id="ywzrXXErnXX4BIjhbYWO-35" value="" style="endArrow=none;html=1;rounded=0;entryX=0.5;entryY=0;entryDx=0;entryDy=0;" edge="1" parent="1" source="ywzrXXErnXX4BIjhbYWO-11" target="ywzrXXErnXX4BIjhbYWO-12">
          <mxGeometry width="50" height="50" relative="1" as="geometry">
            <mxPoint x="400" y="370" as="sourcePoint" />
            <mxPoint x="450" y="320" as="targetPoint" />
          </mxGeometry>
        </mxCell>
        <mxCell id="ywzrXXErnXX4BIjhbYWO-36" value="" style="endArrow=none;html=1;rounded=0;entryX=0.5;entryY=0;entryDx=0;entryDy=0;" edge="1" parent="1" source="ywzrXXErnXX4BIjhbYWO-1" target="ywzrXXErnXX4BIjhbYWO-11">
          <mxGeometry width="50" height="50" relative="1" as="geometry">
            <mxPoint x="400" y="370" as="sourcePoint" />
            <mxPoint x="450" y="320" as="targetPoint" />
          </mxGeometry>
        </mxCell>
        <mxCell id="ywzrXXErnXX4BIjhbYWO-37" value="" style="endArrow=none;html=1;rounded=0;entryX=1;entryY=0.5;entryDx=0;entryDy=0;exitX=0;exitY=0.5;exitDx=0;exitDy=0;" edge="1" parent="1" source="ywzrXXErnXX4BIjhbYWO-23" target="ywzrXXErnXX4BIjhbYWO-12">
          <mxGeometry width="50" height="50" relative="1" as="geometry">
            <mxPoint x="400" y="370" as="sourcePoint" />
            <mxPoint x="450" y="320" as="targetPoint" />
          </mxGeometry>
        </mxCell>
        <mxCell id="ywzrXXErnXX4BIjhbYWO-38" value="" style="endArrow=none;html=1;rounded=0;exitX=1;exitY=0.5;exitDx=0;exitDy=0;entryX=0;entryY=0.5;entryDx=0;entryDy=0;" edge="1" parent="1" source="ywzrXXErnXX4BIjhbYWO-23" target="ywzrXXErnXX4BIjhbYWO-25">
          <mxGeometry width="50" height="50" relative="1" as="geometry">
            <mxPoint x="400" y="370" as="sourcePoint" />
            <mxPoint x="450" y="320" as="targetPoint" />
          </mxGeometry>
        </mxCell>
        <mxCell id="ywzrXXErnXX4BIjhbYWO-45" value="" style="shape=stencil(lVfLctswDPwaXTEkwec5Tf8jM3FqT1074zht8/eBqjIKIHkd32QJa+K1C3Dgu5ftw/NmCO7lfDr+3PzZPZ63A38bQtgdtpvT7ixPA98PfPd0PG1+nI6vh8fp9/PDaDk+/Tr+Hv/h74TzzpFzIyy4t+kVUy7/XnyfAPvd4ROgVcqs7Cs5BvaZclD2PpBDBwQKSQMyRQCohZxXgOCoZgBwlLRLEgODGEqhYnIUqSUACFSbAkTf07wKyI1K1YBEFbgkgKZdSo4CisFR1CekSNkDgHhsALWfeQlgOiMzuQizFHXhcqWEXGJiDZA3/51cB0Ri3UtSyoiylGwvVd+b5RIgGTpk8sgl+axbo0kvoaAjBV1poVQCaZUkRu2ScBY1X2q2NVojD7IUK4VmARVkiXPXiA9Oz7qzihAVaosjMqCc55WoK4qaom6NVmBanaW0lMGBugkdtchInRmoEltREiEsQPa8EDpqgO98Wk+peJQ1wEEAe2r6hCplBr0dpVXLLYCUuox+0aWcqORbghaNyfWWtAqhm47hSt0EwAt+osYQJS6mcLjzsnhssnSltcNCYzB5oiNvZu41fhY7f65IgAzx4i0AiUxZVLp0SVg/YCEYWCYXe88VHb7dPhnyyJ4C+kjGrS5BDX0nuGBv9qoiug/+P9gdRmYn8p/tYJtXjvUesrNZuIrijVR1fjJekUSvdbwpw56WOat5LKyIaGez6hgLVay/Zi7HAPfUkQHaIy7kkWAHWwL2cN0Ji8k/LvMgZg5dnj94L0KBhlS1YudTH0PrVV4IdoEHjEnXZeZ+4qVVpJnlHxYheTv2fefFpQllVh0Przt5MfYdXGmFJGbGihSjaRO6aM72iDWjKFh/0E5eo82P6wlYt2/9qjXbFzAG2mIj91031u1Lb+C5vvC62SgVY4/uUTfff78AkIf5uv202++n2/rn7/Z6Lq+mqz3fvwM=);lineShape=1;strokeColor=default;" vertex="1" parent="1">
          <mxGeometry x="357.4632236449578" y="514.695520723282" width="1.610883101510056" height="12.04547808069597" as="geometry" />
        </mxCell>
        <mxCell id="ywzrXXErnXX4BIjhbYWO-46" value="" style="shape=stencil(lVfZbttADPwavxK7y734nKb/ESBObdSNA8fp8felaqwtUvKgedPBkUgOj9kNP7zvnt62mxTez6fj9+2v/fN5t+Evm5T2r7vtaX/Wqw0/bvjh5XjafjsdP16fL/dvT5PldPXj+HP6wu8LLoZAIUywFP5cHjE1/vfg6wVw2L/OANKoi7EXCh3YFwrR2MeMAYFqt4BOrdwH9EI9GYCGkBoAhBHhFdCoAEAr4/U1RxEmqQViGwPXkYZVQK0ekJWXdB9QhJINOmsMAgCFYjaAkqkGAAgULdFVg873AblSs0zXTgyIU0C0gKalAWJQAFcLkOHkXZdsWjtTAWnVJDoeeqcMqlVpyraWtOALYJqVONc/laQCgGapWECnBNKqtcmWaREISIW4eUAHAG3IXj1AAA8xURYPqCBoTQn7mDugIVFzDjU4M5S15ElgMAHCgoNMAponktgyEh4ZWG82as6fRAnEGwOJoyxSRg41SnbM65wVVBQ8mn0OACnSPSBx4RKqU90MzQfNqBM61eazimaeNqfvhAKnqjanuCxVyBu3kfVZ4aHWYaboAB22v66m7EpPqAGmtfaCBcx2/HptZCqLX3SQJuVhYY/GMI8IZzFHEPOyuCtM6kLCKM0M/PmsfRtv50sB+N+95Jm2DtgJ3U/Haa2BTSt+GjWmDlpTp0W3gKrjAAQQi/9DDVSAR5pSNy0KQ0mlEz5ajnMhQa2Zh6a7SipVFwigfWVd0k+g5s+ZsgVooisaL+KlsM7xCmThpMEcIFIBAM26U3nTHAcx1OyVamRYSrV5ANY7VcbEvR0X0PcnJWwrSWc8Us5xbKVrAFSAP6oYnZwKg/Z1+zak0M0eLSk9K9Ts7CPwv+ext2/2aPb25qs0jK243vrRK5frjlu3z0Pv3uwbqGldX357wNE46TJbP2mI+nV7WdoLsP/0+fQ/AHpxOw6/7A+Hy2l6/t4fn/XR5ejNj38B);lineShape=1;strokeColor=default;" vertex="1" parent="1">
          <mxGeometry x="360.42009067167965" y="515.4758845039255" width="2.6796474231558967" height="11.895504143520052" as="geometry" />
        </mxCell>
        <mxCell id="ywzrXXErnXX4BIjhbYWO-49" value="" style="shape=stencil(nVjLchpBDPwarqp5j3R2nP9wlXGg4hgXxnn8fbShBq+00ODclkW9M5Jaas2s8t3b5uF1vUrh7bDffV//2j4eNqv8ZZXS9mWz3m8P+rTK96t897Tbr7/td+8vj8ffrw+T5fT0Y/dz+sLvI04yVZ5QKfw5vskU678XX4/2z9sXa9+Sse9UGNgXqtHYx0IxAEClUi1AqCNAo2Q9SIUkAkCnIBYglBoAMMVmY1QoCQAIhWwBDKMaQ6AQDKLk8ebSnrrNQ+kj0ucBkWo3gBopp8sAFqo2EbWO3J8HZO9DFcrA686UigG0TB340DMVu0JT9mGA86FHkgwB7OhdSUCquzLBAYQYOV18AbF+AmRaAWzZxx37UCnYTE+5B1FizwwlVwELJGrOvlMExFhwW2u8gf0EnwNtIgGEVP21AZIEiRrTKPdZgApYIMWFx4Ea6Ho5jdKaAXK/DJiqfbFCBSvUtAhShE2s6feyj1JGgOqLTXt/B1FqjcRtqVIGzG5l8PgEaMSAeNpPmm0YU2sG1aktrjkfZPSc83lQQPMABonLYVT7Sa4+evl5MikTol+iAa9jpLjwmsEKZUR9Vp8VRCl4idY0RLCh4OVwEnkUoyGWMyIFYC+LfhShv5GHzMyKh0HxaMfr0QMK6Bh5oYUTANRCkVEqM4Cgel5ooTotqOkpIH8GwAsWBRhVHt1hJjsJq4jNMmc8JFGwOeh4WpChSTNlRqojfkDqmgHEohMFTsPFqaGdB1Ri63FLcKKaZMS6oEnMSGjZS3/Fs4LqTncraHFjYnc3dzbqSKjSGIduHFT1b7GVcGUWLmVowI3TdqkjrzfO85OLDoBPDNNobbd05UxSdICyLezKqUf7has2fKxS+2KrBx/blAbBZkGpioVTbLeIcOBRXkpz9nBkY88K5SnQZT0YOF1WEQL7aexJhEVZh+zovw/tZRTubfvRGT+UT/jL7E+QOJ4SfX5xvnT2c/nFfPiPa4Ir9vrwcSfxtH1+Pl5pzP/3dxj66nj/ke//Ag==);lineShape=1;strokeColor=default;" vertex="1" parent="1">
          <mxGeometry x="411.8900480808545" y="513.7308561662707" width="1.929117211341673" height="13.413469199744247" as="geometry" />
        </mxCell>
        <mxCell id="ywzrXXErnXX4BIjhbYWO-50" value="" style="shape=stencil(rVjLbhsxDPwaXwlJ1IM6p+l/BIjTGHXjwElff19uXa1N7u4UBXrbbDSWSA6Ho93x3dvzw+t+l8Lb+/n0ef/98Pj+vOMPu5QOL8/78+Fdn3Z8v+O7p9N5/+l8+vryePn79WFaOT19OX2bfuHHBdeFukyoFH5e3mTi+PvFx8v64+Hldn2h1Mz6StK214uQBLM+BpIKAIlCtIBMPWwDWiZJFtAp5m1AFYr2SIkpgiPVSMXGnBrFtA0ohaKNgQPVsg3IjXq3gExBACBSs0FzG1GtArhSs3XmPt6sAwIxW2IkqiDoVKjZLOUCsxSVetkCGrUOdmCqdocS4Q6pey6VTAnswDyoNgMaMaA3C7EtXA2UQP9k3cH1jx4JkE9z8qddZoAeCdC7JGrFAFoYeVsHVMqWGo2pALZOIdrCtfkn1gFlaMoAiB4JsFVbNNsdBB+pJS8CUodQrQMqFVtp6ZQAl1SXik2rSiFq0QlgK901SyAGUZmxle5tlHI9hk7VtqiquSBA9WLfO+xpJYJ0D+iggSaqLQEMKt1WABkBdAAtgoZs5ZW0MmJrGkm8KVxAA0XHh0trpop2yFRsP3QehF8HqHo7QMKATsU2UI9QW7WB/A4zHdcBhUQWO6COE2q8iAFIpWpEL4ssAdXQjnMyM9UBZEkB1cWglcY7uIEycQmwVWNgJwIyar+epTba5bYfsP3xWdKOQz0d/XyIIcCoVY3rYguUV+1RrzMy2LLVECH5vCK6ao/6HWZB/z8AHfzFFSIOK7sOWKiAel+0Q9aB40ZQoQwqp35K3BjFKqAu0dkZHRkJ0FXtTLRaqSMjgR3UMAUr3yokFXk48QBlVwc6o6ZPnGFSownSqu4/W7ZOgg6EKS46qOAhpzcYN4LUQqEYsqdSwW5mbsfZGPfB3o311RnpAiMuY+jP63no2lbAbjhkbCljo2yLpteTBCLQKrsdGLsrnm32DJhvaeuANobNfImT4Rm3nHqyTNWrbkKXOPHWXqNClwdlTbR1UO6iy8OVyDOgwBGqdsxfpiNlNNWbp1KDMctCuBneKqX5XouQFzKLw1ivVATn74vW1AGM1kdvPwO8RqsDScWtR6NTDYj48wR0nkqc3HqUHx2T1Z8HTWadwy27/EcwEHTQF0fR8eFha72rb4ItcGM9rgRCXntyHk5Z4DT45+9bf12vD9ePaU+H4/HyLe72//7jm766fLjj+18=);lineShape=1;strokeColor=default;" vertex="1" parent="1">
          <mxGeometry x="415.8332284118213" y="512.7650907370589" width="6.5156373863402015" height="15.285374261652665" as="geometry" />
        </mxCell>
        <mxCell id="ywzrXXErnXX4BIjhbYWO-51" value="" style="shape=stencil(lVjbclMxDPyavGpsyzc9l/IfzNDSDKVl2nL7e/YQbGIl2QxvuUjHlrRarc5Ob14fPny926Xw+vby/Pnux/7j28NO3+1S2j893L3s3/Bpp7c7vbl/frn79PL87enj4fvXD5vl9unL8/ftCT8PfkFS35xS+HX4waL0+OeX9wf7x/3TkX2UlBf73iTVy/Y6/p32UQKxL9LTYt+yWL9s3yWu9tUkB3L/INU5ZOlGHJJYWR2CqBKHIsEWh1KkkJBjk7rmNJtUEsNWtLg64MxMHKJYWBwUWSJVTlnKGrSqlEQcquS1zltlGnHoUnR1UAnkShqkrEiNXRKpg87nTQeVTLKkddx4OoSBxksnZOdQaVpxQliDNonMvnuwZmqfo7T1+YAqswf0g7MPBHjApUtpkEaaswB36u7/F1fn7fPgntn9ktnz+4D9LECSRA6oUXTtTTQfoyOQg2s1hNzZCfPG06GMop91aJNNpoONXjrvkD2/KLJKWq01j+sNV8ShgyMdv4DGmYNKW+ki4wQSdK9iK10UPIIgtYMR1xNKGwRy1sHSCHHSttI6WJG09kKtIw0XJslslonWLp3A1czTMIZhI3mFg4Nrz5TCDKy6Vq7zIKyJrnntnTaEVd9ynZfasrTkHZhisDlpjiQGYyWUulSfJWNpjR59PY1EX3JoK5ia0XGIKzmibKgDg0by+EabR1Zp9aKhJYksBnDrGnSDEmMx1PG86QC2Z4UD9Zk/4Qpa3XhDDLRw5lVGK4OfL3acy1ITY0HbUJsTGlwD2JRq0wH4ZXUAR6x838uA46W0NofWRukbhXN1QMcVVoci8YQEMotBh2Q+ulJhdUhjaB4F3XgDOV2PtKYrLXpSOBrD/zpgBLnVBA5M4iInup4AEohsl5ktf9RxDK0YH7pCAzOLbW8YUG592xQRkTPoL9eipdKRtXXw2g+Y7Awa2NfSiiVoByZaEWJY0woZyxYBDH4HbzXa01jwkhNMlY4saJG8ZkkTDbqckDH2IcZ8JXloQEobCRpS3e0mWAKZls5I65qlyHs6n+5XOJNgKQevZtKVhayNuk6HRocihLDD0raikUpr9AMFl4wkBpTJMR/yxuQPFmO3SaOUV1Zvt0Bs6GJvA6LnVvR0IZVGmdQp3UazhK22OTWTBrrOO+jJnG7SmUP0i/EVZdy9WAfZ0rVsiNq5eCdK9tkrRAxV9pYo+40JY55tG9lTEuyZCJiaYtrbIObzoPAyZhM27HWMXwOOtpsL7wFb9gc0au92UNgHklCsoOYTlMjzwS0rA0M28ee7JdoKnQknux70NNvSwwngMIXo/f/vPex1e3z499L3fv/4eHhnfPy/f0mMnw4vmPX2Nw==);lineShape=1;strokeColor=default;" vertex="1" parent="1">
          <mxGeometry x="286.3131958681263" y="478.8123216450109" width="19.22030214970598" height="8.86051153151652" as="geometry" />
        </mxCell>
        <mxCell id="ywzrXXErnXX4BIjhbYWO-52" value="" style="shape=stencil(lVjZctswDPwavWJI8H5O0//ITJzaUzfOOO719wWrkWIC9sZ+UxSsiWOxADWFh/ft09tmYvd+Oh6+b37vnk/bKXyZmHev281xd5KnKTxO4eHlcNx8Ox5+vj7Pf789dcv+9OPwq//CnxnHlLmD2P2dX4RKPv5/83W23+9ez+wT5TjaF4rA3juqCpCoNQDI1JIGMACwWxw4AwQPAJFc1gAUAxdqXgNKvg4InpIzABBDiNSqAQQAqBSNSxnEED1lk9bIAHDJJVSHKMQxAAcAKVBVMUQKiHuVqjohLIm+CMiBWFGDKQGXcqbaRoDkrVwHFKH3yCXOFBEgkR/r4AuModSlTCsAN1D1unDeU6wAkMmNLjExsm+6HRxMasvErOwdiLiJogTlD+JRq5RGf4SJgNmtUTAlQAkSQC2jQ23h+hXRWyNcENJ/qGhyRBmZmiIl7JMfT8hpkfJrWfJjECVQA0yVMrixDELFAtqzJd3PpS2VvAyIevhIdzQUdKA8npDFpQQArCsnGhJRHXhhwlo4YS/KkgGIJgUUg3GJ/VKZG4OWmdrAfOtpHQsnv4A8MnVzxKhshhjiD7I3zJPZhvw31PZxUagbm0dO8EBhLvSnrDEZ96cmkoOybUUmi6oigFGxIlsEitrIZCl36rD0JxpudwP6ZKgagKgko8cbyUBBV15UcdX6Ck8QzUpjlprUHqhYiVRZAwI6QfbPcQWQUqLt0C4ZZ3y8cY8RejnQ0nZT+mjCG3cxoReK2m57whY0sOw+KYAAXLIba+cj4IbdiQXg0BJtXZL5A7hh9/qunSBoe3PoJ9x1N+lBgxjs7aenFbDP3q86AC4z+gYnMaB5Yq6IMpBgCHoLkImXgP26Sa32DO9KnoKydzBDTku9qFQCRJUKjAmVDRzbqxuAbD0Z+qNmVW6wl609w53H+JOkbQBHTbwyCtG0NfmMn0xnXS9RAnSfN3wQIUBdfO8nj8/t5eHj+8rLbr+fP8+c/19/j5FX87ec8PgP);lineShape=1;strokeColor=default;" vertex="1" parent="1">
          <mxGeometry x="286.0999856706326" y="474.0542307833732" width="18.58889850909879" height="1.7683110011879262" as="geometry" />
        </mxCell>
        <mxCell id="ywzrXXErnXX4BIjhbYWO-53" value="" style="shape=stencil(rVjLchtBCPwaXamZYZ5nx/kPV1mOVVEkl+y8/j5sVCML0HZ8yG21AgYaaJjd8N3r88PLdpPC69vp+HX7c/f49rzhT5uUdofn7Wn3Jk8bvt/w3dPxtP1yOn4/PJ5/vzwsksvTt+OPxcKvs16iwotSCr/PLypx+vvi81l8vztciRfKWYkXqrwuHgOloeQzxQjkCyVtP9Go6/IpTnPv8gXJZ6rOfgDynZq2z9TGujwzxW7wCQXIN+rJwJ+A/ZysP40qSFduVLT9DvEpkUYz8h3gU8TdYuVBfmugyEY+I3mmWk28CP9aqXcjH0C8LVHS+BRiYL9VCq4eMpAflIKptwDw7IlY2w9YvlLW9vN08Lb8oKLzO2gA/wdbf8bki9vyjaLpL6YEHBrdAdSIQcRjUNCMwpkGaDFRMC2TJccNcdYF80tRNMqgiuSIYUh0QNoShaJ96pEKCkJ4SNf1iBRwIrpJXJulcluhUtOdcIXDbQ2hfnNEx0EI+WpcpbwSOuFCtheY8uSzNYWky7sx5BdRiNqlKrjihrADTVKDYzAML5xfO0bJtNCYTbWaB82R0nMDnSCp1igJKzUEqxSTOaHMAl4rVxt0gnNwaQgddI4zqtWWM4uIUBVqCFHQiauFOoJ1UNUKTWAAvLEwk5mFfW4DayhFrbCkEik0y30Lbkih2HEuCvm/Kkg/aGKSkYQ2hhFsi3bZKcHIFXumRVuHmfYzVNi4AQU/pGvDU91tAVJLA60Nbs2omRic4PeYmqiC4vOLkhAZmux+ExMFuPm7VU9MDKTgdslFAeTBL6viEmogvw0LSuh6cWPd5nmh+eA+L4lDLeovDEtpgBP8jWTJPUDJX3mkWiPaZ9ydSk5oIAZ/aav4lucuhQJSRLcqd+fEUzrOOrtKM6I9KWRXqWiChjkILrNEah3EGyhr/6XUA/AnWJ7PGdKF2z+5T0r7oHykDDrT+SNFiPjOxRs7VTDNHZ6RqYB6cPmSqQbgceXQZjwfrDbIc/8Ul4f3jylPu/3+/C3m+n/78UVenT/c8P0f);lineShape=1;strokeColor=default;" vertex="1" parent="1">
          <mxGeometry x="286.78720168284144" y="302.20331056226604" width="19.295209778220258" height="1.7245382984228124" as="geometry" />
        </mxCell>
        <mxCell id="ywzrXXErnXX4BIjhbYWO-54" value="" style="shape=stencil(lVjZctswDPwav2JIggf4nKb/kZk4tadunHGcHn9fqKoUk5DX1pujYEUcC2CpDT+8757etpvg3s+n4/ftr/3zebfhL5sQ9q+77Wl/1l8bftzww8vxtP12On68Po9/vz0NlsOvH8efwxt+j7hASQZQcH/GBz6Rr/+efB3tD/vXC/tMKbX2kSpft/eBcmgBTK4AgFDtTvAkADCE4HtAAS4NMcQWEMjn6wB2VEoPKAIAmhPfBw1PEMrZZMldB0QNuhoAcClmCiZoiQBQF4JOIK2JKXIPYECllCmbwiGXcqDQBe2m2i8DCrk2rZVcum5fHElL1jKledk+UmmTmqiAqhXpm4Ehj0Qz3vqvRAWtIJrRrmYUgD/Vk2/9dxQBTauSqHT2iKW1TK/79P9/ApbtZWLYRYFhAJW4O8BTBRRSgLQRsOYMzS83hzjXWJsfkE6P6EiRBbJUAb5lhdadQZk1Tb7tg4p7Wevg2qj1FQKiromka5yKg44T8WdAIgbUrky5jUHJy6jUgWrrUtGBg1wyqy0JHJEWEJVMq1waVgsqnAnaz0/uTGvEDWTq5qaReScxPBwwlnkF7jVLbV8o4/7smoc9JVCDhf6MhRi3WzcCMsM9ZYeMznEkYewYEz0TuWTmpD6BLukg7vSCuzGKzei+iTDLQRORQO3s9hmmDDjBrjcNG40luz+HsEA/2AWtHYWmjFUA2uRoyixIDDcJ2DtFjJIjrpJJIrDprBCTMr3iTqmngAgIbsWk4Dlg5aqSpYLCWUGsJyC2WsmtJ6CdaEW9noC4ZK8NCkAn2IuJFi6suvoMlV51uRrSCgDm9iYJTjKzESXCQeb7hSgMJ4CfdM5sP/ffor3r11vJUNCrnO2k2Ez1K/a+zY92K4MSW20Y4e3Z7qoE82P8Ye3kNfEqyxGnTT71QoLks6mX1wUPJJXhg89Qz6/9GnHbXn98fvp42R8O45eTy//3n0r00fiZhR//Ag==);lineShape=1;strokeColor=default;" vertex="1" parent="1">
          <mxGeometry x="287.95103123636864" y="295.68157707156405" width="18.349986874305387" height="1.372478040779995" as="geometry" />
        </mxCell>
        <mxCell id="ywzrXXErnXX4BIjhbYWO-59" value="" style="shape=stencil(lVnZUhwxDPyafVXZls9nkvwHVUDYCgEKyPX36cmWzVgz0yne9pDGh1qtluakV6/318+3p+Be316evt3+Ot+83Z/00ymE8+P97cv5DZ9O+vmkV3dPL7dfX55+PN5cvj9fL5bLp+9PP5cn/L74VUl1cQruz+UHJ6X9++HLxfzh/Lgy916KTvZBYiH2Rbyf7KPkdGyPx6mb7LPESOyL6Lz/Iq0e22uw520SyHm1SI6TvXdS9dghqtQ8OwSpZEexSph35KMUcqVJRdvskKUxB5xhjoGvEvOxQw6S5yAAFc4RhyrFOHhpJGwFd1Jmh3GqfQfgyDhEukLd3FIYUNx3yJLnOCzQIIFrTvK8JfX0DC13IAwHlUaSoWEDZoUsShy8G3EaHlVyoEukGd/Riyf32lJ/3nCIoswh9L+HAz9ErRZ9sVH01SRxvteEM5DIVYBzzlHkVCEOQJ+bz5AyTeriLfpSk0oOnbOkOUeXJCSBw98+zQ7jGo5YoBiH2uF1yDMz+orrWbvPZAjTvEJRiSRwQI4h15LFMXL1EmbwlSqe0Tf+nrFUUd8ICyi4d4YGiIQVOOR8mc8AOGayJVRcg6U6IrPvEHu6jJLl6LWGYFO0qTiCJd9E50MjyxmT+WT5vlUaOJS01KwDSyAUzTbnw8JU7AzAZrAOjfG9pLyxJ2fOmyi0DpV9rEpUax8IT6plbtxQZDiSYC6o9Ds+sPcz7FCOGMGgQpv9cFxH8eb+UaAJSpPl4MbrCDJZrb2jtbAnydqBSdVgSyEcWJ4B1OrtFTkCOaSNXSF11O47ZEtfCBoDHVZoJgogF7ZC6nm7gl1mZ9Cehitcs7ihY0ibxKlkBTxuXmClavaLrbhNJrM6lToZruwjQRIKgLdXxIIQbO1HDFgmBHGmJclU2gKnm8xkzPVR+7xTPhJTeBIMhDxluiXRZmEByUebzmRbJIh1BiE/QD8cIm3z0K4Ytq6IIilooDuj1yAsHANF6T3akC5FAnFQ13uD4ZA6GxxJF9PmLV0Ww/W49ZXAY6mM3tZkWi68GS62gYFIVRI4CPetDGbYgw43ZRNCm+m1jNbAaH/ejmDHRolAGGe2Qts4uM7K+/ylVn7FSltVqORgOqTMGbJZ8CGUgWwJ6Dd1ZJHeJIEgeuucQAu6WJenljXQ2zK9gzOYWgjAVzZj2G4p8KGEl2wcHN0SmrY6pyhUSuWDFVNtAyeypWkzU4zUq9FR02bKM8oXI/s4atN6dMMHXEZILsMhRjOlj7NGQS90pocwmZkeCoAybkXFMjM37Y84onsjJqFSqBBLnVTex4asuWgdme9TSdp19hANxqA60vUR58ApHVS5zSSMgtRZkg+0F9xMnDwVO8528J7i2dlG09FRJx4WjHliOLCjKUcvcjNSdF25HXRESa05bYiyncSzljr3idW7OZt5bZLQ0Rz84GuB/5rjw/sbiLvzw8PlBcb6f/vGAj9d3nbo578=);lineShape=1;strokeColor=default;" vertex="1" parent="1">
          <mxGeometry x="505.7682022179878" y="514.1302957691614" width="6.254686905165287" height="14.692978412452023" as="geometry" />
        </mxCell>
        <mxCell id="ywzrXXErnXX4BIjhbYWO-60" value="" style="shape=stencil(lVrZcls3DP0avXK4E3hO0//ITJzaU9fOOE6Xvy9YDSnxUPeofrOvAJLYDhbylD79ePzy/eEU/Y/3t9ffH/56+vr+eEq/nGJ8enl8eHt6t79O6fMpffr2+vbw29vrz5ev5/+/f+mU/a8/Xv/sK/x95vMuts4U/T/nD1mcr/99+fVM//z0ckUfnC8rfXVFKT2sn1zxx/Teia703tXA6Fta6FNzgZzHVvMrfXRaGH1Z14/qhNK3uNJX1xrTD5w/JueJfqKTvNAHdTUf02eXVnuFOla4SV9dWs8TkpN4TC9OV3uF4IIQeU2A1SHEJaaf4tq6QXWZ+KcZIIXVgVwg65u6dXWIOD7cphcXV/owDniT3twrIX0g/pyqC6vBzAOZfS2AA9B7cp6cXcT1mb8ZHNQI9EyfJbqWgb6S8xRzR9RPIfqpBhAV7MXWr3mo7//5Q1WX0N8q0U9LLqznEYonrWzyGkQmwiAuQwSbCYlHiHcZIMJ0TFQqpkHYQQcK3GawmBQErUCCUmTYaDI0mmU0YFpK3imBFbWsspohFYorWlCtSWmi0Xni6UiZRrKKK5Aq7Qs7kmKoWTAJE1qdrpYuzSUGvn4G+/TuMLzlaAuEX1McO5M4WROIRRSVuuGRekgxvWbXVkO0SksKjS6sahKOeaLjAJMhUS1ZQCiAgGV9ggIWcgo76MC1o6D2q2+YVJnhUkVn6npjOBNHHTcZ6oDy20g5RZwMBlVkB4NuqC3MuxhDyWgHYxCW3GRg+xWDErVeitEJfZ77RtIbQhQSEIZDsIWpiVWoVjHkhoaIrISZWpwM5q4kgnqRt5q6ex/bIWMVLG2UQbcZTIbV+ySPnHEbmRTrZgsR5huXnDZRQHnjkke8TAaeIaxShZBrs7g/QFcXVxQwrGS1mGJpUuNY4YAekLIoxWIZjjnpDRSIxIIaKsk1Vji4tMpbPAcxpO+9JkPJYZ9JX6h+BN3aglWJwQTjxnpHT+Wtqz5THi5yZC9YP1BssfwPvaBQ/zGHgxjo7SGLgeB01WhotJuyGEhrDFjcMbSzbhFktgaO9ZsWlj4jQyJKsp9jRAZWQIfZMF4zsCM1tEM/EvHTIDhUMAYljmRoFwXVWjk8QnK2QxZmON0Sm3BLK6JdbwKYHfZGWGmJbicO4N6eVlUXJV4xVAbAGQO0N89Mhq1r6N0tM1zEHUzozJMIlDDdWe6EKMRDG/Xu4Q7g3pWDQMT62Rg8kyFtQs/m6cgOgEuBJ8J+gLIxMDs0TLUXWDjy1rQdqTHX0HHiKy2xgrtHHKBGo9kqKKZnOyTroj/OsI0OrE+vDCrbFnGVu3fdxq+8nwx1a+x5zjUGMNydpN4ZYOBjrvGh/FA87ZS60KtrlDKC9kit2BPzQiBs85KaaC/WkXRF7yq0NOxTM6iGZ8l+1AIIVMM8gMxzYNDbzFvJDskPR7hq09mo3RqltrXpSgxn5RrEg/Bhcqpj/nLVKCXWu20goGEMyI8a0Lzu0CdZxHC9ZG4bAxuwpu1I/AambBMcY2D5oSbEJY20XqpbNaO8ErgxZJUR5UdTVpjqm6VZxJlv4kCG3wtJwBlou9Ns5C3iKu+uKspgamBXPaYTDFHP54d+jAmuUCOwBiVgzVczFdoYcIdAE4oxQM9X2hijHjHAfUlJ9ALHhI4wNPVU6D683tpQarg21psMgcogBStjS4qs1jCci8CQ6GBMtk7R0JaFaGvbxN6gkuzQMo5ArdagO0SUIXp661C3aXdvXtmAso1wmQx5QNtthoxC91qZAdkWD70lZ9ha8bqUD61KxHBoNKJzw4am0X4mb1c/vBpLgt164/kw4/yg0XlsH4mt9EL1aVUJXj/7seNRoYQTkDimUke12379xlDYfk5bqx5YtxQRI/uVLL3F2WKTz3t163Irv+rCQuzOmwfBwLzzpkLwCjeVO+s3eLOh9E5c0InMzSn+4jTGAJ4hUcOo7xd77A4aka7wO4aCBZjRM+wteH6jZylwq0RKoNP8hPYqgU7OE5aoJfD7CHwi0ddnPeE21w40YDympsIH+R4vYIqnFzAeS5CsNG1sl7BGz97MeATd/iiDvon62Juu+/T2x+UB2ben5+fz+7Pr3/HBmX06P1ZLn/8F);lineShape=1;strokeColor=default;" vertex="1" parent="1">
          <mxGeometry x="511.68508626774724" y="514.8144162366968" width="8.855289338808145" height="12.082865433275334" as="geometry" />
        </mxCell>
        <mxCell id="ywzrXXErnXX4BIjhbYWO-61" value="" style="shape=stencil(lVjbUlsxDPyavGos3/1M6X8wQyiZUsKE0MvfV6cZp5GcrDlvh6C1ZVm7krwJd+/PD2/bjXfvx8P++/bX7vH4vAlfNt7vXp+3h91RvjbhfhPunvaH7bfD/uP18fT328NiuXz92P9cVvh9wtVKLiwo7/6cfmHK+d8PX0/2L7vXS/tGySv7SDndtm9Mrij7QpGBvSd22h9HAW3gybEGBCoFehSjBhQKDQAcOe2SxChUEKM6ABIMUs2UtEu+UQNRqoliVoAQicGhaySvrzlUSsilQKxdiqGf6jqA+72eAYVKBABHrM+QPGWwQ2nkkwaUnozXAXLEpgDZ97jdApgdculhuAUoOkqFKaF7cD3VzgC5SpB81Q+ARg4RNHb+doAs4VEuZWqa0ZJdDl1cI9Yu1QLD2gIFzQehFKSoRF27JEt4AGA3cFTWqEhnSqfwGSDZgsLUqJod2iw3XLaADNI1S5iKBTQAEIJ5fREXcbiKCNyT7WKLCmRApDEHC4hA+4oltYS1gShxl60Lew/Wd/bIcpGIcLGH/GyfqYL1l+LhLMADgvpsRaYlqoANkS3fBJBBiFK1JXECKIFiWOOSSEDgNYeW9Sx7cFgla4rZAd+bpEE1Z8CJIX1AjRaAMm9R1oGfKLWzCMSgAIg8Sz1byc9Mme0WSAKEP23gJxIZ6aZ4UAAOYIfBI6yTV4UYHHmtcPueZ58sDXngM649EqCqDzypbqIYTns0qZ8s5NGZOqnQiwhrlyY9ALcBgLsMSSOvuTDpYwRQVnVKfmgPJ72YJEZZ1e3JoY0ATPpJHtrDScfKuavoJ3tiuemiq9uk6+ZoB4FJXy/JZwaByeTAfuVswqunH0rao8l4VagZkcTzm9ivGhCrVUg8gMpqUdMZD7gsCqzvGA/Qo1ycuXcr6YL238FKK8uZFHIw5SQ+0Rl7VGelRJkHANfbk+vtjiiPtUecSdGyEttL1xytPfJHhC2vOa+08bGsiKcMztnao/saxy+cD6sfbKb28vH/dehp9/Jyely6/L99TZKfTi9R4f4v);lineShape=1;strokeColor=default;" vertex="1" parent="1">
          <mxGeometry x="551.3922983271696" y="512.985611580777" width="0.624799318815251" height="14.213187918499873" as="geometry" />
        </mxCell>
        <mxCell id="ywzrXXErnXX4BIjhbYWO-62" value="" style="shape=stencil(nVjbUhsxDP2avGpsS7bsZ0r/gxlCyZQSJqS3v6+2mU2RNpwlfQuLji+6HB15wzevj3cv201Jr8fD/uv25+7++LjhT5tSds+P28PuaL82fLvhm4f9YfvlsP/+fH/6++Vuspx+fdv/mFb4dcINpVEmVEm/T18yDfn74fPJ/mn37O1bdfaVGNl3SsPZd8rYXvz6OdFoENCSBzANxoDmAY1GhYDOHjCoKwAMKuoApZBgQPVBMK+WBAEt7GBxHBjg78AJX9qOlD3A3Irv0LoHNFK8g/rMYNsTRDqnRMmHWgoVvMXwySSVMkqmhZukU0F+tXLwbqqZBAGEur91lXmJy4BExadrVaqggrrES7dEuQNAJvbJ1ApV4FY9++QMkJlFLgM0kkAbxKBGleMO0xfgpWZH8tmnjRjcoSmpeECHtDHt4GvU/Kb4SOrdapFRtMOYk/kMUOqABQygPlstWRqoUU1xh8EwNQwQyNUSntGR+lzzZ4DxPThSY5IUAagBVatgX3ETVQGASIz0RAsgcEZ07JPvDfNcRBi9F45bdLBFLrHLGYABMVVKC7cqOFGi7pPV4tZBoNNcXW/sE/JRJKXRYJgXzWHU2QOXHbQonoEpxnaoIwIaSotMqVwDMGLvcs2RjHYHX3Np4ySWa7xq5RkydSVsE2NoBHTQrlqda+uDiVet3K/KbGuw3CIA1Q7rLI0+XJ6V+uJMiAGyxalHAOIYpTyilxCJLVMJs+RC+KzQ8PX2QcWMDEV3jhzcrXfB+4b1u3VnEIAyd6WzPUOhx/G+PUF7mTv3ufnrLNnfkZ6R4FVg47SRIgh0zThHF6254amklAVASIC8KC0KGJN5kOPTQqoOqG1N8EcxrDPJvsfBxdeBiWGk2oQjyxsro8Se9L6/9IqgN7XQw4yBR4ZJXoQZAw8lBhie8FbmHjtA8rm0MlkZILh1ZXZbemllOpyO5At0Zf6cjuQLaGXClQUFr8zQBogPGXhKlxaHkpV3AAOE1rby0mAAjp0K0qoBwtMEfiwRjTyMH2Ns/fiSAduUrV812MMYjFgLRnrAQZUjhyUswUystGCPxkgbLrgE+4zlUQgYFhZqSRrPg+xtYhS54jzWJQMD4/ta167x/MifpkdD38TxMhUR+jLOh/94XFyxtx//XjIfdk9Pp4fQt/+PL5/26fRqyrd/AA==);lineShape=1;strokeColor=default;" vertex="1" parent="1">
          <mxGeometry x="554.9454680410092" y="514.1540681905747" width="1.0861030464571289" height="14.201868273640446" as="geometry" />
        </mxCell>
      </root>
    </mxGraphModel>
  </diagram>
</mxfile>
